<?xml version="1.0" standalone="no"?>
<!DOCTYPE svg PUBLIC "-//W3C//DTD SVG 20010904//EN"
 "http://www.w3.org/TR/2001/REC-SVG-20010904/DTD/svg10.dtd">
<svg version="1.0" xmlns="http://www.w3.org/2000/svg"
 width="512.000000pt" height="512.000000pt" viewBox="0 0 512.000000 512.000000"
 preserveAspectRatio="xMidYMid meet">
<metadata>
Created by potrace 1.11, written by Peter Selinger 2001-2013
</metadata>
<g transform="translate(0.000000,512.000000) scale(0.100000,-0.100000)"
fill="#000000" stroke="none">
<path d="M3920 3903 c-243 -35 -397 -90 -552 -194 -57 -38 -189 -162 -228
-214 -113 -147 -184 -310 -227 -515 -22 -104 -26 -156 -28 -310 -2 -102 1
-214 6 -250 5 -36 12 -83 15 -105 21 -156 101 -358 196 -499 53 -77 196 -220
268 -268 204 -133 436 -197 715 -196 146 1 307 25 430 64 89 28 285 121 328
156 l28 23 -3 172 -3 171 -49 -44 c-143 -132 -364 -238 -546 -262 -100 -13
-320 -7 -398 11 -170 40 -294 109 -399 221 -121 129 -196 303 -230 536 -10 72
-10 377 1 460 54 424 292 698 664 764 125 22 345 14 467 -18 156 -41 312 -121
433 -223 l62 -54 0 175 0 175 -27 19 c-43 30 -181 98 -253 125 -69 26 -207 62
-275 72 -47 7 -358 14 -395 8z"/>
<path d="M420 2630 l0 -1232 478 5 c262 3 493 8 512 11 19 3 51 8 70 11 31 5
97 16 172 30 51 10 203 63 273 96 317 150 501 429 552 840 10 83 10 407 0 484
-47 347 -177 589 -402 750 -83 60 -285 149 -381 170 -10 2 -50 10 -89 18 -38
9 -94 18 -124 22 -30 4 -63 9 -75 12 -12 3 -238 8 -503 10 l-483 5 0 -1232z
m970 944 c150 -21 233 -44 330 -91 232 -112 374 -334 407 -639 10 -86 10 -339
1 -419 -43 -362 -212 -592 -511 -689 -41 -13 -91 -27 -111 -30 -20 -3 -55 -11
-78 -17 -24 -6 -183 -13 -360 -16 l-318 -5 0 961 0 962 273 -2 c168 -1 308 -6
367 -15z"/>
</g>
</svg>
